<svg width="15" height="15" viewBox="0 0 15 15" fill="none" xmlns="http://www.w3.org/2000/svg">
<g clip-path="url(#clip0_1062_134)">
<path d="M7.47831 1.3913C4.11831 1.3913 1.39136 4.11826 1.39136 7.47826C1.39136 10.8383 4.11831 13.5652 7.47831 13.5652C10.8383 13.5652 13.5653 10.8383 13.5653 7.47826C13.5653 4.11826 10.8383 1.3913 7.47831 1.3913ZM7.47831 12.3478C4.78788 12.3478 2.60875 10.1687 2.60875 7.47826C2.60875 6.35217 2.99223 5.31739 3.63744 4.49565L10.4609 11.3191C9.63918 11.9643 8.6044 12.3478 7.47831 12.3478ZM11.3192 10.4609L4.49571 3.63739C5.31744 2.99217 6.35223 2.6087 7.47831 2.6087C10.1687 2.6087 12.3479 4.78783 12.3479 7.47826C12.3479 8.60435 11.9644 9.63913 11.3192 10.4609Z" fill="#545454"/>
</g>
<defs>
<clipPath id="clip0_1062_134">
<rect width="14.6087" height="14.6087" fill="white" transform="translate(0.17395 0.173913)"/>
</clipPath>
</defs>
</svg>
