<svg width="14" height="15" viewBox="0 0 14 15" fill="none" xmlns="http://www.w3.org/2000/svg">
<path d="M6.99992 14.1667C3.31802 14.1667 0.333252 11.1819 0.333252 7.50001C0.333252 3.81811 3.31802 0.833344 6.99992 0.833344C10.6818 0.833344 13.6666 3.81811 13.6666 7.50001C13.6666 11.1819 10.6818 14.1667 6.99992 14.1667ZM6.99992 12.8333C9.94545 12.8333 12.3333 10.4455 12.3333 7.50001C12.3333 4.55449 9.94545 2.16668 6.99992 2.16668C4.0544 2.16668 1.66659 4.55449 1.66659 7.50001C1.66659 10.4455 4.0544 12.8333 6.99992 12.8333ZM6.33325 9.50001H7.66658V10.8333H6.33325V9.50001ZM6.33325 4.16668H7.66658V8.16668H6.33325V4.16668Z" fill="#FF7E17"/>
</svg>
